<svg xmlns= "http://www.w3.org/2000/svg" width="24" height="24" fill="white" aria-label="Options" class="x1lliihq x1n2onr6 x5n08af"><circle cx="12" cy="12" r="8.635" fill="none" stroke="white" stroke-linecap="round" stroke-linejoin="round" stroke-width="2"/><path fill="none" stroke="white" stroke-linejoin="round" stroke-width="2" d="M14.232 3.656a1.27 1.27 0 0 1-.796-.66L12.93 2h-1.86l-.505.996a1.27 1.27 0 0 1-.796.66m-.001 16.688a1.27 1.27 0 0 1 .796.66l.505.996h1.862l.505-.996a1.27 1.27 0 0 1 .796-.66M3.656 9.768a1.27 1.27 0 0 1-.66.796L2 11.07v1.862l.996.505a1.27 1.27 0 0 1 .66.796m16.688-.001a1.27 1.27 0 0 1 .66-.796L22 12.93v-1.86l-.996-.505a1.27 1.27 0 0 1-.66-.796M7.678 4.522a1.27 1.27 0 0 1-1.03.096l-1.06-.348L4.27 5.587l.348 1.062a1.27 1.27 0 0 1-.096 1.03m11.8 11.799a1.27 1.27 0 0 1 1.03-.096l1.06.348 1.318-1.317-.348-1.062a1.27 1.27 0 0 1 .096-1.03m-14.956.001a1.27 1.27 0 0 1 .096 1.03l-.348 1.06 1.317 1.318 1.062-.348a1.27 1.27 0 0 1 1.03.096m11.799-11.8a1.27 1.27 0 0 1-.096-1.03l.348-1.06-1.317-1.318-1.062.348a1.27 1.27 0 0 1-1.03-.096"/></svg>